<svg width="30" height="12" viewBox="0 0 30 12" fill="none" xmlns="http://www.w3.org/2000/svg">
<path d="M25.636 7.17684H26.4513C26.8723 7.17684 27.1971 7.07244 27.4258 6.86363C27.6545 6.65482 27.8136 6.37973 27.9031 6.03835C27.9959 5.69365 28.0423 5.32244 28.0423 4.92471V4.38778C28.0423 4.01657 28.0008 3.66027 27.918 3.31889C27.8384 2.9775 27.6843 2.69909 27.4556 2.48366C27.2302 2.26491 26.8955 2.15553 26.4513 2.15553C26.0636 2.15553 25.7404 2.26325 25.4819 2.47869C25.2234 2.69081 25.0825 2.96922 25.0593 3.31391H23.3242C23.3375 2.81013 23.4833 2.36103 23.7617 1.96661C24.0434 1.56889 24.4163 1.25567 24.8803 1.02698C25.3443 0.794974 25.8581 0.67897 26.4215 0.67897C27.2004 0.67897 27.8451 0.846347 28.3555 1.1811C28.8692 1.51254 29.252 1.95998 29.5039 2.52343C29.7591 3.08356 29.8867 3.70501 29.8867 4.38778V4.92471C29.8867 5.6141 29.7591 6.24052 29.5039 6.80397C29.252 7.3641 28.8725 7.81155 28.3654 8.1463C27.8583 8.47774 27.2203 8.64346 26.4513 8.64346H25.636V7.17684ZM27.4457 7.17684V11H25.5714V7.17684H27.4457Z" fill="#4B0082"/>
<path d="M20.6358 7.63424C20.3342 7.63424 20.0757 7.52818 19.8602 7.31606C19.6448 7.10393 19.5388 6.84541 19.5421 6.54049C19.5388 6.24219 19.6448 5.98698 19.8602 5.77486C20.0757 5.56274 20.3342 5.45668 20.6358 5.45668C20.9275 5.45668 21.181 5.56274 21.3965 5.77486C21.6152 5.98698 21.7263 6.24219 21.7296 6.54049C21.7263 6.74267 21.6732 6.92661 21.5705 7.09233C21.471 7.25805 21.3385 7.39063 21.1727 7.49006C21.0103 7.58618 20.8314 7.63424 20.6358 7.63424Z" fill="#4B0082"/>
<path d="M16.0874 8.69C16.4141 9.11934 16.6894 9.41334 16.9134 9.572C17.1374 9.73067 17.3428 9.81 17.5294 9.81C17.7348 9.81 17.9074 9.80067 18.0474 9.782C18.1874 9.754 18.3041 9.71667 18.3974 9.67V10.916C18.2948 10.9907 18.1501 11.0467 17.9634 11.084C17.7861 11.1213 17.5948 11.14 17.3894 11.14C17.0908 11.14 16.8248 11.098 16.5914 11.014C16.3581 10.9393 16.1201 10.7947 15.8774 10.58C15.6348 10.356 15.3501 10.0433 15.0234 9.642C14.5661 10.2207 14.1554 10.6173 13.7914 10.832C13.4368 11.0373 13.0494 11.14 12.6294 11.14C12.1908 11.14 11.8501 11.0653 11.6074 10.916V9.67C11.7008 9.70734 11.8174 9.74 11.9574 9.768C12.1068 9.796 12.2654 9.81 12.4334 9.81C12.6668 9.81 12.8908 9.73534 13.1054 9.586C13.3201 9.42734 13.5954 9.13334 13.9314 8.704C13.4928 8.23734 13.1288 7.75667 12.8394 7.262C12.5501 6.758 12.4054 6.212 12.4054 5.624C12.4054 5.176 12.5128 4.77467 12.7274 4.42C12.9421 4.056 13.2454 3.77134 13.6374 3.566C14.0294 3.35134 14.4914 3.244 15.0234 3.244C15.5554 3.244 16.0128 3.35134 16.3954 3.566C16.7874 3.77134 17.0908 4.056 17.3054 4.42C17.5201 4.77467 17.6274 5.176 17.6274 5.624C17.6274 6.212 17.4734 6.76267 17.1654 7.276C16.8574 7.78 16.4981 8.25134 16.0874 8.69Z" fill="#4B0082"/>
<path d="M16.2201 3.17969H14.8728C14.7568 3.06369 14.596 2.93443 14.3905 2.79191C14.185 2.64608 13.9315 2.50687 13.6299 2.3743C13.3316 2.23841 12.9786 2.12737 12.5709 2.0412C12.1666 1.95171 11.7042 1.90697 11.1839 1.90697C10.6602 1.90697 10.1962 1.95171 9.79181 2.0412C9.38746 2.12737 9.03613 2.23841 8.73784 2.3743C8.43623 2.50687 8.18433 2.64608 7.98216 2.79191C7.77666 2.93443 7.61094 3.06369 7.485 3.17969H6.1377C6.3001 2.88803 6.52051 2.60465 6.79892 2.32955C7.07401 2.05114 7.41539 1.79925 7.82306 1.57387C8.22742 1.34849 8.70801 1.16951 9.26483 1.03694C9.81833 0.904362 10.458 0.838074 11.1839 0.838074C11.9031 0.838074 12.5394 0.904362 13.093 1.03694C13.6465 1.16951 14.1254 1.34849 14.5297 1.57387C14.9374 1.79593 15.2805 2.04617 15.5589 2.32458C15.8373 2.59967 16.0577 2.88471 16.2201 3.17969Z" fill="#4B0082"/>
<path d="M9.37019 7.63424C9.06858 7.63424 8.81006 7.52818 8.59462 7.31606C8.37919 7.10393 8.27313 6.84541 8.27644 6.54049C8.27313 6.24219 8.37919 5.98698 8.59462 5.77486C8.81006 5.56274 9.06858 5.45668 9.37019 5.45668C9.66186 5.45668 9.91541 5.56274 10.1308 5.77486C10.3496 5.98698 10.4606 6.24219 10.4639 6.54049C10.4606 6.74267 10.4076 6.92661 10.3049 7.09233C10.2054 7.25805 10.0728 7.39063 9.90712 7.49006C9.74472 7.58618 9.56574 7.63424 9.37019 7.63424Z" fill="#4B0082"/>
<path d="M3.54972 7.18181H4.13139V8.65837H3.57457C2.79901 8.65837 2.15436 8.49265 1.64063 8.16121C1.12689 7.82646 0.742424 7.37902 0.487216 6.81889C0.235322 6.25544 0.109375 5.63067 0.109375 4.9446V4.40766C0.109375 3.71496 0.236979 3.08688 0.492188 2.52343C0.747396 1.95998 1.13021 1.51254 1.64063 1.1811C2.15436 0.846347 2.79569 0.67897 3.56463 0.67897C4.18111 0.67897 4.7197 0.796631 5.1804 1.03195C5.64441 1.26396 6.00568 1.59374 6.2642 2.0213C6.52604 2.44554 6.66193 2.94602 6.67188 3.52272H4.93182C4.91525 3.14488 4.7893 2.82338 4.55398 2.55823C4.31866 2.28977 3.98059 2.15553 3.53977 2.15553C3.09896 2.15553 2.76586 2.27154 2.54048 2.50354C2.3151 2.73224 2.16264 3.02059 2.0831 3.3686C2.00355 3.7133 1.96378 4.05965 1.96378 4.40766V4.9446C1.96378 5.29261 2.00189 5.63896 2.07813 5.98366C2.15767 6.32504 2.31013 6.61008 2.53551 6.83877C2.7642 7.06747 3.10227 7.18181 3.54972 7.18181ZM2.57528 11V7.17187H4.41974V11H2.57528Z" fill="#4B0082"/>
</svg>
